<svg width="47" height="48" viewBox="0 0 47 48" fill="none" xmlns="http://www.w3.org/2000/svg">
<g filter="url(#filter0_d_1_32)">
<rect x="4" y="3" width="39" height="39" rx="2" fill="#9BC3FF"/>
</g>
<rect x="4" width="39" height="39" rx="2" fill="#000A19"/>
<path d="M20.5469 15.4336H23.2129C24.3535 15.4336 25.2168 15.5938 25.8027 15.9141C26.3887 16.2344 26.6816 16.7969 26.6816 17.6016C26.6816 17.9258 26.6289 18.2188 26.5234 18.4805C26.4219 18.7422 26.2734 18.957 26.0781 19.125C25.8828 19.293 25.6445 19.4023 25.3633 19.4531V19.5117C25.6484 19.5703 25.9062 19.6719 26.1367 19.8164C26.3672 19.957 26.5508 20.1641 26.6875 20.4375C26.8281 20.707 26.8984 21.0664 26.8984 21.5156C26.8984 22.0352 26.7715 22.4805 26.5176 22.8516C26.2637 23.2227 25.9004 23.5078 25.4277 23.707C24.959 23.9023 24.4004 24 23.752 24H20.5469V15.4336ZM22.3633 18.8262H23.418C23.9453 18.8262 24.3105 18.7441 24.5137 18.5801C24.7168 18.4121 24.8184 18.166 24.8184 17.8418C24.8184 17.5137 24.6973 17.2793 24.4551 17.1387C24.2168 16.9941 23.8379 16.9219 23.3184 16.9219H22.3633V18.8262ZM22.3633 20.2676V22.5H23.5469C24.0938 22.5 24.4746 22.3945 24.6895 22.1836C24.9043 21.9727 25.0117 21.6895 25.0117 21.334C25.0117 21.123 24.9648 20.9375 24.8711 20.7773C24.7773 20.6172 24.6191 20.4922 24.3965 20.4023C24.1777 20.3125 23.875 20.2676 23.4883 20.2676H22.3633Z" fill="white"/>
<defs>
<filter id="filter0_d_1_32" x="0" y="1" width="47" height="47" filterUnits="userSpaceOnUse" color-interpolation-filters="sRGB">
<feFlood flood-opacity="0" result="BackgroundImageFix"/>
<feColorMatrix in="SourceAlpha" type="matrix" values="0 0 0 0 0 0 0 0 0 0 0 0 0 0 0 0 0 0 127 0" result="hardAlpha"/>
<feOffset dy="2"/>
<feGaussianBlur stdDeviation="2"/>
<feComposite in2="hardAlpha" operator="out"/>
<feColorMatrix type="matrix" values="0 0 0 0 0 0 0 0 0 0 0 0 0 0 0 0 0 0 0.5 0"/>
<feBlend mode="normal" in2="BackgroundImageFix" result="effect1_dropShadow_1_32"/>
<feBlend mode="normal" in="SourceGraphic" in2="effect1_dropShadow_1_32" result="shape"/>
</filter>
</defs>
</svg>
