<svg width="48" height="48" viewBox="0 0 48 48" fill="none" xmlns="http://www.w3.org/2000/svg">
<g filter="url(#filter0_d_1_105)">
<rect x="4" y="3" width="40" height="39" rx="2" fill="#9BC3FF"/>
</g>
<rect x="4" width="40" height="39" rx="2" fill="#000A19"/>
<path d="M14.0625 16.8223C13.7148 16.8223 13.4062 16.8906 13.1367 17.0273C12.8711 17.1602 12.6465 17.3535 12.4629 17.6074C12.2832 17.8613 12.1465 18.168 12.0527 18.5273C11.959 18.8867 11.9121 19.291 11.9121 19.7402C11.9121 20.3457 11.9863 20.8633 12.1348 21.293C12.2871 21.7188 12.5215 22.0449 12.8379 22.2715C13.1543 22.4941 13.5625 22.6055 14.0625 22.6055C14.4102 22.6055 14.7578 22.5664 15.1055 22.4883C15.457 22.4102 15.8379 22.2988 16.248 22.1543V23.6777C15.8691 23.834 15.4961 23.9453 15.1289 24.0117C14.7617 24.082 14.3496 24.1172 13.8926 24.1172C13.0098 24.1172 12.2832 23.9355 11.7129 23.5723C11.1465 23.2051 10.7266 22.6934 10.4531 22.0371C10.1797 21.377 10.043 20.6074 10.043 19.7285C10.043 19.0801 10.1309 18.4863 10.3066 17.9473C10.4824 17.4082 10.7402 16.9414 11.0801 16.5469C11.4199 16.1523 11.8398 15.8477 12.3398 15.6328C12.8398 15.418 13.4141 15.3105 14.0625 15.3105C14.4883 15.3105 14.9141 15.3652 15.3398 15.4746C15.7695 15.5801 16.1797 15.7266 16.5703 15.9141L15.9844 17.3906C15.6641 17.2383 15.3418 17.1055 15.0176 16.9922C14.6934 16.8789 14.375 16.8223 14.0625 16.8223ZM21.3809 24H19.5645V16.9453H17.2383V15.4336H23.707V16.9453H21.3809V24ZM27.5215 15.4336C28.2988 15.4336 28.9395 15.5273 29.4434 15.7148C29.9512 15.9023 30.3281 16.1855 30.5742 16.5645C30.8203 16.9434 30.9434 17.4219 30.9434 18C30.9434 18.3906 30.8691 18.7324 30.7207 19.0254C30.5723 19.3184 30.377 19.5664 30.1348 19.7695C29.8926 19.9727 29.6309 20.1387 29.3496 20.2676L31.8691 24H29.8535L27.8086 20.7129H26.8418V24H25.0254V15.4336H27.5215ZM27.3926 16.9219H26.8418V19.2363H27.4277C28.0293 19.2363 28.459 19.1367 28.7168 18.9375C28.9785 18.7344 29.1094 18.4375 29.1094 18.0469C29.1094 17.6406 28.9688 17.3516 28.6875 17.1797C28.4102 17.0078 27.9785 16.9219 27.3926 16.9219ZM32.9473 24V15.4336H34.7637V22.5H38.2383V24H32.9473Z" fill="white"/>
<defs>
<filter id="filter0_d_1_105" x="0" y="1" width="48" height="47" filterUnits="userSpaceOnUse" color-interpolation-filters="sRGB">
<feFlood flood-opacity="0" result="BackgroundImageFix"/>
<feColorMatrix in="SourceAlpha" type="matrix" values="0 0 0 0 0 0 0 0 0 0 0 0 0 0 0 0 0 0 127 0" result="hardAlpha"/>
<feOffset dy="2"/>
<feGaussianBlur stdDeviation="2"/>
<feComposite in2="hardAlpha" operator="out"/>
<feColorMatrix type="matrix" values="0 0 0 0 0 0 0 0 0 0 0 0 0 0 0 0 0 0 0.5 0"/>
<feBlend mode="normal" in2="BackgroundImageFix" result="effect1_dropShadow_1_105"/>
<feBlend mode="normal" in="SourceGraphic" in2="effect1_dropShadow_1_105" result="shape"/>
</filter>
</defs>
</svg>
