<svg width="47" height="48" viewBox="0 0 47 48" fill="none" xmlns="http://www.w3.org/2000/svg">
<g filter="url(#filter0_d_1_62)">
<rect x="4" y="3" width="39" height="39" rx="2" fill="#9BC3FF"/>
</g>
<rect x="4" width="39" height="39" rx="2" fill="#000A19"/>
<path d="M23.0449 24L20.9824 17.2793H20.9297C20.9375 17.4395 20.9492 17.6816 20.9648 18.0059C20.9844 18.3262 21.002 18.668 21.0176 19.0312C21.0332 19.3945 21.041 19.7227 21.041 20.0156V24H19.418V15.4336H21.8906L23.918 21.9844H23.9531L26.1035 15.4336H28.5762V24H26.8828V19.9453C26.8828 19.6758 26.8867 19.3652 26.8945 19.0137C26.9062 18.6621 26.9199 18.3281 26.9355 18.0117C26.9512 17.6914 26.9629 17.4512 26.9707 17.291H26.918L24.709 24H23.0449Z" fill="white"/>
<defs>
<filter id="filter0_d_1_62" x="0" y="1" width="47" height="47" filterUnits="userSpaceOnUse" color-interpolation-filters="sRGB">
<feFlood flood-opacity="0" result="BackgroundImageFix"/>
<feColorMatrix in="SourceAlpha" type="matrix" values="0 0 0 0 0 0 0 0 0 0 0 0 0 0 0 0 0 0 127 0" result="hardAlpha"/>
<feOffset dy="2"/>
<feGaussianBlur stdDeviation="2"/>
<feComposite in2="hardAlpha" operator="out"/>
<feColorMatrix type="matrix" values="0 0 0 0 0 0 0 0 0 0 0 0 0 0 0 0 0 0 0.5 0"/>
<feBlend mode="normal" in2="BackgroundImageFix" result="effect1_dropShadow_1_62"/>
<feBlend mode="normal" in="SourceGraphic" in2="effect1_dropShadow_1_62" result="shape"/>
</filter>
</defs>
</svg>
