<svg width="47" height="48" viewBox="0 0 47 48" fill="none" xmlns="http://www.w3.org/2000/svg">
<g filter="url(#filter0_d_1_65)">
<rect x="4" y="3" width="39" height="39" rx="2" fill="#9BC3FF"/>
</g>
<rect x="4" width="39" height="39" rx="2" fill="#000A19"/>
<path d="M27.7969 24H25.4883L21.7617 17.5195H21.709C21.7246 17.7891 21.7383 18.0605 21.75 18.334C21.7617 18.6074 21.7734 18.8809 21.7852 19.1543C21.7969 19.4238 21.8086 19.6953 21.8203 19.9688V24H20.1973V15.4336H22.4883L26.209 21.8496H26.25C26.2422 21.584 26.2324 21.3203 26.2207 21.0586C26.209 20.7969 26.1973 20.5352 26.1855 20.2734C26.1777 20.0117 26.1699 19.75 26.1621 19.4883V15.4336H27.7969V24Z" fill="white"/>
<defs>
<filter id="filter0_d_1_65" x="0" y="1" width="47" height="47" filterUnits="userSpaceOnUse" color-interpolation-filters="sRGB">
<feFlood flood-opacity="0" result="BackgroundImageFix"/>
<feColorMatrix in="SourceAlpha" type="matrix" values="0 0 0 0 0 0 0 0 0 0 0 0 0 0 0 0 0 0 127 0" result="hardAlpha"/>
<feOffset dy="2"/>
<feGaussianBlur stdDeviation="2"/>
<feComposite in2="hardAlpha" operator="out"/>
<feColorMatrix type="matrix" values="0 0 0 0 0 0 0 0 0 0 0 0 0 0 0 0 0 0 0.5 0"/>
<feBlend mode="normal" in2="BackgroundImageFix" result="effect1_dropShadow_1_65"/>
<feBlend mode="normal" in="SourceGraphic" in2="effect1_dropShadow_1_65" result="shape"/>
</filter>
</defs>
</svg>
