<svg width="47" height="48" viewBox="0 0 47 48" fill="none" xmlns="http://www.w3.org/2000/svg">
<g filter="url(#filter0_d_1_68)">
<rect x="4" y="3" width="39" height="39" rx="2" fill="#9BC3FF"/>
</g>
<rect x="4" width="39" height="39" rx="2" fill="#000A19"/>
<path d="M28.0781 19.7051C28.0781 20.3652 27.9961 20.9668 27.832 21.5098C27.668 22.0488 27.418 22.5137 27.082 22.9043C26.75 23.2949 26.3281 23.5957 25.8164 23.8066C25.3047 24.0137 24.6992 24.1172 24 24.1172C23.3008 24.1172 22.6953 24.0137 22.1836 23.8066C21.6719 23.5957 21.248 23.2949 20.9121 22.9043C20.5801 22.5137 20.332 22.0469 20.168 21.5039C20.0039 20.9609 19.9219 20.3574 19.9219 19.6934C19.9219 18.8066 20.0664 18.0352 20.3555 17.3789C20.6484 16.7188 21.0977 16.207 21.7031 15.8438C22.3086 15.4805 23.0781 15.2988 24.0117 15.2988C24.9414 15.2988 25.7051 15.4805 26.3027 15.8438C26.9043 16.207 27.3496 16.7188 27.6387 17.3789C27.9316 18.0391 28.0781 18.8145 28.0781 19.7051ZM21.8262 19.7051C21.8262 20.3027 21.9004 20.8184 22.0488 21.252C22.2012 21.6816 22.4375 22.0137 22.7578 22.248C23.0781 22.4785 23.4922 22.5938 24 22.5938C24.5156 22.5938 24.9336 22.4785 25.2539 22.248C25.5742 22.0137 25.8066 21.6816 25.9512 21.252C26.0996 20.8184 26.1738 20.3027 26.1738 19.7051C26.1738 18.8066 26.0059 18.0996 25.6699 17.584C25.334 17.0684 24.7812 16.8105 24.0117 16.8105C23.5 16.8105 23.082 16.9277 22.7578 17.1621C22.4375 17.3926 22.2012 17.7246 22.0488 18.1582C21.9004 18.5879 21.8262 19.1035 21.8262 19.7051Z" fill="white"/>
<defs>
<filter id="filter0_d_1_68" x="0" y="1" width="47" height="47" filterUnits="userSpaceOnUse" color-interpolation-filters="sRGB">
<feFlood flood-opacity="0" result="BackgroundImageFix"/>
<feColorMatrix in="SourceAlpha" type="matrix" values="0 0 0 0 0 0 0 0 0 0 0 0 0 0 0 0 0 0 127 0" result="hardAlpha"/>
<feOffset dy="2"/>
<feGaussianBlur stdDeviation="2"/>
<feComposite in2="hardAlpha" operator="out"/>
<feColorMatrix type="matrix" values="0 0 0 0 0 0 0 0 0 0 0 0 0 0 0 0 0 0 0.5 0"/>
<feBlend mode="normal" in2="BackgroundImageFix" result="effect1_dropShadow_1_68"/>
<feBlend mode="normal" in="SourceGraphic" in2="effect1_dropShadow_1_68" result="shape"/>
</filter>
</defs>
</svg>
