<svg width="47" height="48" viewBox="0 0 47 48" fill="none" xmlns="http://www.w3.org/2000/svg">
<g filter="url(#filter0_d_1_71)">
<rect x="4" y="3" width="39" height="39" rx="2" fill="#9BC3FF"/>
</g>
<rect x="4" width="39" height="39" rx="2" fill="#000A19"/>
<path d="M24.0469 15.4336C25.1523 15.4336 25.959 15.6719 26.4668 16.1484C26.9746 16.6211 27.2285 17.2734 27.2285 18.1055C27.2285 18.4805 27.1719 18.8398 27.0586 19.1836C26.9453 19.5234 26.7598 19.8262 26.502 20.0918C26.248 20.3574 25.9082 20.5684 25.4824 20.7246C25.0566 20.877 24.5312 20.9531 23.9062 20.9531H23.127V24H21.3105V15.4336H24.0469ZM23.9531 16.9219H23.127V19.4648H23.7246C24.0645 19.4648 24.3594 19.4199 24.6094 19.3301C24.8594 19.2402 25.0527 19.0996 25.1895 18.9082C25.3262 18.7168 25.3945 18.4707 25.3945 18.1699C25.3945 17.748 25.2773 17.4355 25.043 17.2324C24.8086 17.0254 24.4453 16.9219 23.9531 16.9219Z" fill="white"/>
<defs>
<filter id="filter0_d_1_71" x="0" y="1" width="47" height="47" filterUnits="userSpaceOnUse" color-interpolation-filters="sRGB">
<feFlood flood-opacity="0" result="BackgroundImageFix"/>
<feColorMatrix in="SourceAlpha" type="matrix" values="0 0 0 0 0 0 0 0 0 0 0 0 0 0 0 0 0 0 127 0" result="hardAlpha"/>
<feOffset dy="2"/>
<feGaussianBlur stdDeviation="2"/>
<feComposite in2="hardAlpha" operator="out"/>
<feColorMatrix type="matrix" values="0 0 0 0 0 0 0 0 0 0 0 0 0 0 0 0 0 0 0.5 0"/>
<feBlend mode="normal" in2="BackgroundImageFix" result="effect1_dropShadow_1_71"/>
<feBlend mode="normal" in="SourceGraphic" in2="effect1_dropShadow_1_71" result="shape"/>
</filter>
</defs>
</svg>
