<svg width="47" height="48" viewBox="0 0 47 48" fill="none" xmlns="http://www.w3.org/2000/svg">
<g filter="url(#filter0_d_1_80)">
<rect x="4" y="3" width="39" height="39" rx="2" fill="#9BC3FF"/>
</g>
<rect x="4" width="39" height="39" rx="2" fill="#000A19"/>
<path d="M26.3301 21.6211C26.3301 22.1289 26.207 22.5703 25.9609 22.9453C25.7148 23.3203 25.3555 23.6094 24.8828 23.8125C24.4141 24.0156 23.8438 24.1172 23.1719 24.1172C22.875 24.1172 22.584 24.0977 22.2988 24.0586C22.0176 24.0195 21.7461 23.9629 21.4844 23.8887C21.2266 23.8105 20.9805 23.7148 20.7461 23.6016V21.9141C21.1523 22.0938 21.5742 22.2559 22.0117 22.4004C22.4492 22.5449 22.8828 22.6172 23.3125 22.6172C23.6094 22.6172 23.8477 22.5781 24.0273 22.5C24.2109 22.4219 24.3438 22.3145 24.4258 22.1777C24.5078 22.041 24.5488 21.8848 24.5488 21.709C24.5488 21.4941 24.4766 21.3105 24.332 21.1582C24.1875 21.0059 23.9883 20.8633 23.7344 20.7305C23.4844 20.5977 23.2012 20.4551 22.8848 20.3027C22.6855 20.209 22.4688 20.0957 22.2344 19.9629C22 19.8262 21.7773 19.6602 21.5664 19.4648C21.3555 19.2695 21.1816 19.0332 21.0449 18.7559C20.9121 18.4746 20.8457 18.1387 20.8457 17.748C20.8457 17.2363 20.9629 16.7988 21.1973 16.4355C21.4316 16.0723 21.7656 15.7949 22.1992 15.6035C22.6367 15.4082 23.1523 15.3105 23.7461 15.3105C24.1914 15.3105 24.6152 15.3633 25.0176 15.4688C25.4238 15.5703 25.8477 15.7188 26.2891 15.9141L25.7031 17.3262C25.3086 17.166 24.9551 17.043 24.6426 16.957C24.3301 16.8672 24.0117 16.8223 23.6875 16.8223C23.4609 16.8223 23.2676 16.8594 23.1074 16.9336C22.9473 17.0039 22.8262 17.1055 22.7441 17.2383C22.6621 17.3672 22.6211 17.5176 22.6211 17.6895C22.6211 17.8926 22.6797 18.0645 22.7969 18.2051C22.918 18.3418 23.0977 18.4746 23.3359 18.6035C23.5781 18.7324 23.8789 18.8828 24.2383 19.0547C24.6758 19.2617 25.0488 19.4785 25.3574 19.7051C25.6699 19.9277 25.9102 20.1914 26.0781 20.4961C26.2461 20.7969 26.3301 21.1719 26.3301 21.6211Z" fill="white"/>
<defs>
<filter id="filter0_d_1_80" x="0" y="1" width="47" height="47" filterUnits="userSpaceOnUse" color-interpolation-filters="sRGB">
<feFlood flood-opacity="0" result="BackgroundImageFix"/>
<feColorMatrix in="SourceAlpha" type="matrix" values="0 0 0 0 0 0 0 0 0 0 0 0 0 0 0 0 0 0 127 0" result="hardAlpha"/>
<feOffset dy="2"/>
<feGaussianBlur stdDeviation="2"/>
<feComposite in2="hardAlpha" operator="out"/>
<feColorMatrix type="matrix" values="0 0 0 0 0 0 0 0 0 0 0 0 0 0 0 0 0 0 0.5 0"/>
<feBlend mode="normal" in2="BackgroundImageFix" result="effect1_dropShadow_1_80"/>
<feBlend mode="normal" in="SourceGraphic" in2="effect1_dropShadow_1_80" result="shape"/>
</filter>
</defs>
</svg>
