<svg width="67" height="48" viewBox="0 0 67 48" fill="none" xmlns="http://www.w3.org/2000/svg">
<g filter="url(#filter0_d_1_106)">
<rect x="4" y="3" width="59" height="39" rx="2" fill="#9BC3FF"/>
</g>
<rect x="4" width="59" height="39" rx="2" fill="#000A19"/>
<path d="M21.2305 21.6211C21.2305 22.1289 21.1074 22.5703 20.8613 22.9453C20.6152 23.3203 20.2559 23.6094 19.7832 23.8125C19.3145 24.0156 18.7441 24.1172 18.0723 24.1172C17.7754 24.1172 17.4844 24.0977 17.1992 24.0586C16.918 24.0195 16.6465 23.9629 16.3848 23.8887C16.127 23.8105 15.8809 23.7148 15.6465 23.6016V21.9141C16.0527 22.0938 16.4746 22.2559 16.9121 22.4004C17.3496 22.5449 17.7832 22.6172 18.2129 22.6172C18.5098 22.6172 18.748 22.5781 18.9277 22.5C19.1113 22.4219 19.2441 22.3145 19.3262 22.1777C19.4082 22.041 19.4492 21.8848 19.4492 21.709C19.4492 21.4941 19.377 21.3105 19.2324 21.1582C19.0879 21.0059 18.8887 20.8633 18.6348 20.7305C18.3848 20.5977 18.1016 20.4551 17.7852 20.3027C17.5859 20.209 17.3691 20.0957 17.1348 19.9629C16.9004 19.8262 16.6777 19.6602 16.4668 19.4648C16.2559 19.2695 16.082 19.0332 15.9453 18.7559C15.8125 18.4746 15.7461 18.1387 15.7461 17.748C15.7461 17.2363 15.8633 16.7988 16.0977 16.4355C16.332 16.0723 16.666 15.7949 17.0996 15.6035C17.5371 15.4082 18.0527 15.3105 18.6465 15.3105C19.0918 15.3105 19.5156 15.3633 19.918 15.4688C20.3242 15.5703 20.748 15.7188 21.1895 15.9141L20.6035 17.3262C20.209 17.166 19.8555 17.043 19.543 16.957C19.2305 16.8672 18.9121 16.8223 18.5879 16.8223C18.3613 16.8223 18.168 16.8594 18.0078 16.9336C17.8477 17.0039 17.7266 17.1055 17.6445 17.2383C17.5625 17.3672 17.5215 17.5176 17.5215 17.6895C17.5215 17.8926 17.5801 18.0645 17.6973 18.2051C17.8184 18.3418 17.998 18.4746 18.2363 18.6035C18.4785 18.7324 18.7793 18.8828 19.1387 19.0547C19.5762 19.2617 19.9492 19.4785 20.2578 19.7051C20.5703 19.9277 20.8105 20.1914 20.9785 20.4961C21.1465 20.7969 21.2305 21.1719 21.2305 21.6211ZM25.5195 15.4336C26.625 15.4336 27.4316 15.6719 27.9395 16.1484C28.4473 16.6211 28.7012 17.2734 28.7012 18.1055C28.7012 18.4805 28.6445 18.8398 28.5312 19.1836C28.418 19.5234 28.2324 19.8262 27.9746 20.0918C27.7207 20.3574 27.3809 20.5684 26.9551 20.7246C26.5293 20.877 26.0039 20.9531 25.3789 20.9531H24.5996V24H22.7832V15.4336H25.5195ZM25.4258 16.9219H24.5996V19.4648H25.1973C25.5371 19.4648 25.832 19.4199 26.082 19.3301C26.332 19.2402 26.5254 19.0996 26.6621 18.9082C26.7988 18.7168 26.8672 18.4707 26.8672 18.1699C26.8672 17.748 26.75 17.4355 26.5156 17.2324C26.2812 17.0254 25.918 16.9219 25.4258 16.9219ZM35.5625 24L34.9414 21.9609H31.8184L31.1973 24H29.2402L32.2637 15.3984H34.4844L37.5195 24H35.5625ZM34.5078 20.4375L33.8867 18.4453C33.8477 18.3125 33.7949 18.1426 33.7285 17.9355C33.666 17.7246 33.6016 17.5117 33.5352 17.2969C33.4727 17.0781 33.4219 16.8887 33.3828 16.7285C33.3438 16.8887 33.2891 17.0879 33.2188 17.3262C33.1523 17.5605 33.0879 17.7832 33.0254 17.9941C32.9629 18.2051 32.918 18.3555 32.8906 18.4453L32.2754 20.4375H34.5078ZM42.2422 16.8223C41.8945 16.8223 41.5859 16.8906 41.3164 17.0273C41.0508 17.1602 40.8262 17.3535 40.6426 17.6074C40.4629 17.8613 40.3262 18.168 40.2324 18.5273C40.1387 18.8867 40.0918 19.291 40.0918 19.7402C40.0918 20.3457 40.166 20.8633 40.3145 21.293C40.4668 21.7188 40.7012 22.0449 41.0176 22.2715C41.334 22.4941 41.7422 22.6055 42.2422 22.6055C42.5898 22.6055 42.9375 22.5664 43.2852 22.4883C43.6367 22.4102 44.0176 22.2988 44.4277 22.1543V23.6777C44.0488 23.834 43.6758 23.9453 43.3086 24.0117C42.9414 24.082 42.5293 24.1172 42.0723 24.1172C41.1895 24.1172 40.4629 23.9355 39.8926 23.5723C39.3262 23.2051 38.9062 22.6934 38.6328 22.0371C38.3594 21.377 38.2227 20.6074 38.2227 19.7285C38.2227 19.0801 38.3105 18.4863 38.4863 17.9473C38.6621 17.4082 38.9199 16.9414 39.2598 16.5469C39.5996 16.1523 40.0195 15.8477 40.5195 15.6328C41.0195 15.418 41.5938 15.3105 42.2422 15.3105C42.668 15.3105 43.0938 15.3652 43.5195 15.4746C43.9492 15.5801 44.3594 15.7266 44.75 15.9141L44.1641 17.3906C43.8438 17.2383 43.5215 17.1055 43.1973 16.9922C42.873 16.8789 42.5547 16.8223 42.2422 16.8223ZM51.1895 24H46.2559V15.4336H51.1895V16.9219H48.0723V18.8027H50.9727V20.291H48.0723V22.5H51.1895V24Z" fill="white"/>
<defs>
<filter id="filter0_d_1_106" x="0" y="1" width="67" height="47" filterUnits="userSpaceOnUse" color-interpolation-filters="sRGB">
<feFlood flood-opacity="0" result="BackgroundImageFix"/>
<feColorMatrix in="SourceAlpha" type="matrix" values="0 0 0 0 0 0 0 0 0 0 0 0 0 0 0 0 0 0 127 0" result="hardAlpha"/>
<feOffset dy="2"/>
<feGaussianBlur stdDeviation="2"/>
<feComposite in2="hardAlpha" operator="out"/>
<feColorMatrix type="matrix" values="0 0 0 0 0 0 0 0 0 0 0 0 0 0 0 0 0 0 0.5 0"/>
<feBlend mode="normal" in2="BackgroundImageFix" result="effect1_dropShadow_1_106"/>
<feBlend mode="normal" in="SourceGraphic" in2="effect1_dropShadow_1_106" result="shape"/>
</filter>
</defs>
</svg>
