<svg width="48" height="48" viewBox="0 0 48 48" fill="none" xmlns="http://www.w3.org/2000/svg">
<g filter="url(#filter0_d_1_104)">
<rect x="4" y="3" width="40" height="39" rx="2" fill="#9BC3FF"/>
</g>
<rect x="4" width="40" height="39" rx="2" fill="#000A19"/>
<path d="M16.7344 24H14.918V16.9453H12.5918V15.4336H19.0605V16.9453H16.7344V24ZM25.623 24L25.002 21.9609H21.8789L21.2578 24H19.3008L22.3242 15.3984H24.5449L27.5801 24H25.623ZM24.5684 20.4375L23.9473 18.4453C23.9082 18.3125 23.8555 18.1426 23.7891 17.9355C23.7266 17.7246 23.6621 17.5117 23.5957 17.2969C23.5332 17.0781 23.4824 16.8887 23.4434 16.7285C23.4043 16.8887 23.3496 17.0879 23.2793 17.3262C23.2129 17.5605 23.1484 17.7832 23.0859 17.9941C23.0234 18.2051 22.9785 18.3555 22.9512 18.4453L22.3359 20.4375H24.5684ZM28.6641 15.4336H31.3301C32.4707 15.4336 33.334 15.5938 33.9199 15.9141C34.5059 16.2344 34.7988 16.7969 34.7988 17.6016C34.7988 17.9258 34.7461 18.2188 34.6406 18.4805C34.5391 18.7422 34.3906 18.957 34.1953 19.125C34 19.293 33.7617 19.4023 33.4805 19.4531V19.5117C33.7656 19.5703 34.0234 19.6719 34.2539 19.8164C34.4844 19.957 34.668 20.1641 34.8047 20.4375C34.9453 20.707 35.0156 21.0664 35.0156 21.5156C35.0156 22.0352 34.8887 22.4805 34.6348 22.8516C34.3809 23.2227 34.0176 23.5078 33.5449 23.707C33.0762 23.9023 32.5176 24 31.8691 24H28.6641V15.4336ZM30.4805 18.8262H31.5352C32.0625 18.8262 32.4277 18.7441 32.6309 18.5801C32.834 18.4121 32.9355 18.166 32.9355 17.8418C32.9355 17.5137 32.8145 17.2793 32.5723 17.1387C32.334 16.9941 31.9551 16.9219 31.4355 16.9219H30.4805V18.8262ZM30.4805 20.2676V22.5H31.6641C32.2109 22.5 32.5918 22.3945 32.8066 22.1836C33.0215 21.9727 33.1289 21.6895 33.1289 21.334C33.1289 21.123 33.082 20.9375 32.9883 20.7773C32.8945 20.6172 32.7363 20.4922 32.5137 20.4023C32.2949 20.3125 31.9922 20.2676 31.6055 20.2676H30.4805Z" fill="white"/>
<defs>
<filter id="filter0_d_1_104" x="0" y="1" width="48" height="47" filterUnits="userSpaceOnUse" color-interpolation-filters="sRGB">
<feFlood flood-opacity="0" result="BackgroundImageFix"/>
<feColorMatrix in="SourceAlpha" type="matrix" values="0 0 0 0 0 0 0 0 0 0 0 0 0 0 0 0 0 0 127 0" result="hardAlpha"/>
<feOffset dy="2"/>
<feGaussianBlur stdDeviation="2"/>
<feComposite in2="hardAlpha" operator="out"/>
<feColorMatrix type="matrix" values="0 0 0 0 0 0 0 0 0 0 0 0 0 0 0 0 0 0 0.5 0"/>
<feBlend mode="normal" in2="BackgroundImageFix" result="effect1_dropShadow_1_104"/>
<feBlend mode="normal" in="SourceGraphic" in2="effect1_dropShadow_1_104" result="shape"/>
</filter>
</defs>
</svg>
