<svg width="47" height="48" viewBox="0 0 47 48" fill="none" xmlns="http://www.w3.org/2000/svg">
<g filter="url(#filter0_d_1_89)">
<rect x="4" y="3" width="39" height="39" rx="2" fill="#9BC3FF"/>
</g>
<rect x="4" width="39" height="39" rx="2" fill="#000A19"/>
<path d="M27.8965 15.4336L24.9844 24H23.0039L20.0977 15.4336H21.9316L23.543 20.5312C23.5703 20.6172 23.6152 20.7793 23.6777 21.0176C23.7402 21.252 23.8027 21.502 23.8652 21.7676C23.9316 22.0293 23.9766 22.2461 24 22.418C24.0234 22.2461 24.0645 22.0293 24.123 21.7676C24.1855 21.5059 24.2461 21.2578 24.3047 21.0234C24.3672 20.7852 24.4121 20.6211 24.4395 20.5312L26.0625 15.4336H27.8965Z" fill="white"/>
<defs>
<filter id="filter0_d_1_89" x="0" y="1" width="47" height="47" filterUnits="userSpaceOnUse" color-interpolation-filters="sRGB">
<feFlood flood-opacity="0" result="BackgroundImageFix"/>
<feColorMatrix in="SourceAlpha" type="matrix" values="0 0 0 0 0 0 0 0 0 0 0 0 0 0 0 0 0 0 127 0" result="hardAlpha"/>
<feOffset dy="2"/>
<feGaussianBlur stdDeviation="2"/>
<feComposite in2="hardAlpha" operator="out"/>
<feColorMatrix type="matrix" values="0 0 0 0 0 0 0 0 0 0 0 0 0 0 0 0 0 0 0.5 0"/>
<feBlend mode="normal" in2="BackgroundImageFix" result="effect1_dropShadow_1_89"/>
<feBlend mode="normal" in="SourceGraphic" in2="effect1_dropShadow_1_89" result="shape"/>
</filter>
</defs>
</svg>
