<svg width="47" height="48" viewBox="0 0 47 48" fill="none" xmlns="http://www.w3.org/2000/svg">
<g filter="url(#filter0_d_1_92)">
<rect x="4" y="3" width="39" height="39" rx="2" fill="#9BC3FF"/>
</g>
<rect x="4" width="39" height="39" rx="2" fill="#000A19"/>
<path d="M29.8008 15.4336L27.6211 24H25.5527L24.3926 19.5C24.3691 19.4141 24.3379 19.2832 24.2988 19.1074C24.2598 18.9316 24.2188 18.7402 24.1758 18.5332C24.1328 18.3223 24.0938 18.125 24.0586 17.9414C24.0273 17.7539 24.0059 17.6055 23.9941 17.4961C23.9824 17.6055 23.959 17.752 23.9238 17.9355C23.8926 18.1191 23.8555 18.3145 23.8125 18.5215C23.7734 18.7285 23.7344 18.9219 23.6953 19.1016C23.6562 19.2812 23.625 19.418 23.6016 19.5117L22.4473 24H20.3848L18.1992 15.4336H19.9863L21.082 20.1094C21.1133 20.25 21.1484 20.418 21.1875 20.6133C21.2305 20.8086 21.2715 21.0137 21.3105 21.2285C21.3535 21.4395 21.3906 21.6445 21.4219 21.8438C21.457 22.0391 21.4824 22.209 21.498 22.3535C21.5176 22.2051 21.543 22.0332 21.5742 21.8379C21.6055 21.6387 21.6387 21.4375 21.6738 21.2344C21.7129 21.0273 21.752 20.8359 21.791 20.6602C21.8301 20.4844 21.8652 20.3418 21.8965 20.2324L23.1445 15.4336H24.8613L26.1094 20.2324C26.1367 20.3379 26.168 20.4805 26.2031 20.6602C26.2422 20.8359 26.2812 21.0273 26.3203 21.2344C26.3594 21.4414 26.3945 21.6445 26.4258 21.8438C26.4609 22.0391 26.4863 22.209 26.502 22.3535C26.5293 22.1582 26.5664 21.9219 26.6133 21.6445C26.6641 21.3633 26.7168 21.084 26.7715 20.8066C26.8301 20.5293 26.8809 20.2969 26.9238 20.1094L28.0137 15.4336H29.8008Z" fill="white"/>
<defs>
<filter id="filter0_d_1_92" x="0" y="1" width="47" height="47" filterUnits="userSpaceOnUse" color-interpolation-filters="sRGB">
<feFlood flood-opacity="0" result="BackgroundImageFix"/>
<feColorMatrix in="SourceAlpha" type="matrix" values="0 0 0 0 0 0 0 0 0 0 0 0 0 0 0 0 0 0 127 0" result="hardAlpha"/>
<feOffset dy="2"/>
<feGaussianBlur stdDeviation="2"/>
<feComposite in2="hardAlpha" operator="out"/>
<feColorMatrix type="matrix" values="0 0 0 0 0 0 0 0 0 0 0 0 0 0 0 0 0 0 0.5 0"/>
<feBlend mode="normal" in2="BackgroundImageFix" result="effect1_dropShadow_1_92"/>
<feBlend mode="normal" in="SourceGraphic" in2="effect1_dropShadow_1_92" result="shape"/>
</filter>
</defs>
</svg>
